<?xml version="1.0" encoding="iso-8859-1"?>
<!-- Generator: Adobe Illustrator 19.0.0, SVG Export Plug-In . SVG Version: 6.00 Build 0)  -->
<svg version="1.1" id="Capa_1" xmlns="http://www.w3.org/2000/svg" xmlns:xlink="http://www.w3.org/1999/xlink" x="0px" y="0px"
	 viewBox="0 0 512.001 512.001" style="enable-background:new 0 0 512.001 512.001;" xml:space="preserve">
<g>
	<g>
		<path d="M507.589,486.293L350.034,328.737l38.958-38.958c28.103-28.102,41.265-67.373,36.04-106.43l8.625-8.625
			c16.843,11.598,40.141,9.913,55.11-5.054c0-0.001,0-0.001,0-0.001c8.171-8.171,12.67-19.033,12.67-30.59
			c0-11.555-4.5-22.418-12.67-30.589l-85.26-85.26c-16.868-16.868-44.311-16.866-61.178,0c-14.965,14.967-16.65,38.265-5.054,55.11
			l-8.625,8.625c-39.058-5.23-78.327,7.938-106.43,36.04l-38.958,38.958L25.707,4.41c-5.88-5.88-15.415-5.88-21.296,0
			c-5.881,5.88-5.881,15.415,0,21.296l157.555,157.555L26.8,318.429C14.962,330.267,8.441,346.008,8.441,362.75
			c0,16.742,6.519,32.483,18.359,44.322l78.127,78.126c11.839,11.839,27.58,18.359,44.322,18.359
			c16.743,0,32.483-6.519,44.322-18.359l135.167-135.166l157.555,157.555c2.939,2.942,6.794,4.412,10.648,4.412
			c3.854,0,7.708-1.471,10.648-4.411C513.471,501.709,513.471,492.174,507.589,486.293z M172.274,463.904
			c-6.15,6.15-14.327,9.537-23.026,9.537c-8.698,0-16.875-3.387-23.026-9.537l-78.126-78.127c-6.15-6.151-9.537-14.328-9.537-23.027
			s3.387-16.876,9.537-23.026l135.167-135.167l124.178,124.18L172.274,463.904z M328.739,307.442l-124.18-124.18l38.958-38.958
			c18.344-18.343,42.925-28.339,68.304-28.339c6.329,0,12.708,0.621,19.051,1.89c4.934,0.984,10.04-0.558,13.601-4.119l24.24-24.24
			c5.881-5.88,5.881-15.415,0-21.296l-5.085-5.086c-5.124-5.124-5.124-13.462-0.001-18.587c2.483-2.483,5.783-3.849,9.293-3.849
			c3.51,0,6.81,1.366,9.292,3.849l85.26,85.26c2.483,2.483,3.849,5.783,3.849,9.292c0,3.511-1.366,6.811-3.849,9.292
			c-5.124,5.125-13.463,5.124-18.587,0.001l-5.086-5.086c-5.88-5.88-15.415-5.88-21.296,0l-24.24,24.24
			c-3.561,3.56-5.106,8.664-4.119,13.601c6.357,31.781-3.531,64.438-26.448,87.355L328.739,307.442z"/>
	</g>
</g>
<g>
</g>
<g>
</g>
<g>
</g>
<g>
</g>
<g>
</g>
<g>
</g>
<g>
</g>
<g>
</g>
<g>
</g>
<g>
</g>
<g>
</g>
<g>
</g>
<g>
</g>
<g>
</g>
<g>
</g>
</svg>
