<?xml version="1.0" encoding="iso-8859-1"?>
<!-- Generator: Adobe Illustrator 19.0.0, SVG Export Plug-In . SVG Version: 6.00 Build 0)  -->
<svg version="1.1" id="Capa_1" xmlns="http://www.w3.org/2000/svg" xmlns:xlink="http://www.w3.org/1999/xlink" x="0px" y="0px"
	 viewBox="0 0 512 512" style="enable-background:new 0 0 512 512;" xml:space="preserve">
<g>
	<g>
		<path d="M445.163,57.935c-1.01-1.01-3.513-3.051-7.225-3.051c-0.746,0-1.54,0.082-2.381,0.272
			c-21.435,4.83-37.73,12.347-47.122,21.739c-14.505,14.505-21.594,42.422-24.592,62.361c19.933-2.997,47.854-10.087,62.36-24.593
			c9.392-9.392,16.909-25.687,21.739-47.122C449.076,62.512,446.377,59.149,445.163,57.935z"/>
	</g>
</g>
<g>
	<g>
		<path d="M316.923,60.933c-2.755-4.356-7.042-4.827-8.757-4.827s-6.002,0.471-8.757,4.828
			c-11.742,18.573-17.948,35.409-17.948,48.692c0,20.512,14.727,45.266,26.706,61.485c11.976-16.214,26.705-40.971,26.705-61.485
			C334.872,96.344,328.664,79.506,316.923,60.933z"/>
	</g>
</g>
<g>
	<g>
		<path d="M442.199,186.209c-18.573-11.741-35.409-17.948-48.692-17.948c-20.513,0-45.266,14.727-61.485,26.706
			c16.214,11.977,40.971,26.706,61.485,26.706c13.282,0,30.12-6.207,48.693-17.949c4.356-2.754,4.827-7.042,4.827-8.756
			C447.027,193.253,446.557,188.966,442.199,186.209z"/>
	</g>
</g>
<g>
	<g>
		<path d="M159.054,344.955c-0.16-0.147-0.299-0.309-0.452-0.463c-0.14-0.14-0.289-0.268-0.424-0.414
			c-0.515-0.557-4.22-4.612-9.316-11.138L36.119,445.684c-5.881,5.88-5.881,15.415,0,21.296c2.94,2.94,6.795,4.411,10.648,4.411
			c3.853,0,7.708-1.471,10.648-4.411l112.738-112.738C163.651,349.161,159.61,345.469,159.054,344.955z"/>
	</g>
</g>
<g>
	<g>
		<path d="M247.585,130.271c-2.755-4.356-7.042-4.827-8.757-4.827s-6.002,0.471-8.757,4.828
			c-5.223,8.261-9.344,16.177-12.318,23.592l44.293,44.293c2.165-6.549,3.489-13.06,3.489-19.193
			C265.534,165.681,259.327,148.843,247.585,130.271z"/>
	</g>
</g>
<g>
	<g>
		<path d="M151.678,215.567c-6.004,12.347-9.142,23.563-9.142,32.984c0,20.513,14.727,45.266,26.706,61.485
			c10.044-13.599,22.021-33.206,25.624-51.28L151.678,215.567z"/>
	</g>
</g>
<g>
	<g>
		<path d="M372.861,255.548c-18.573-11.742-35.41-17.949-48.693-17.949c-6.132,0-12.643,1.323-19.193,3.489l44.294,44.293
			c7.415-2.974,15.331-7.095,23.592-12.318c4.357-2.755,4.827-7.043,4.827-8.758C377.688,262.59,377.217,258.302,372.861,255.548z"
			/>
	</g>
</g>
<g>
	<g>
		<path d="M507.589,486.293L25.707,4.41c-5.881-5.88-15.416-5.88-21.296,0c-5.881,5.881-5.881,15.416,0,21.296l481.882,481.882
			c2.939,2.94,6.794,4.411,10.648,4.411c3.854,0,7.708-1.471,10.649-4.411C513.47,501.708,513.47,492.172,507.589,486.293z"/>
	</g>
</g>
<g>
	<g>
		<path d="M244.378,308.267c-18.073,3.603-37.677,15.578-51.28,25.625c16.214,11.977,40.971,26.706,61.485,26.706
			c9.421,0,20.636-3.137,32.983-9.142L244.378,308.267z"/>
	</g>
</g>
<g>
</g>
<g>
</g>
<g>
</g>
<g>
</g>
<g>
</g>
<g>
</g>
<g>
</g>
<g>
</g>
<g>
</g>
<g>
</g>
<g>
</g>
<g>
</g>
<g>
</g>
<g>
</g>
<g>
</g>
</svg>
