<?xml version="1.0" encoding="UTF-8"?>
<svg version="1.1" viewBox="0 0 512 512" xmlns="http://www.w3.org/2000/svg">
<path d="m507.59 486.29-157.56-157.56 38.958-38.958c28.103-28.102 41.265-67.373 36.04-106.43l8.625-8.625c16.843 11.598 40.141 9.913 55.11-5.054v-1e-3c8.171-8.171 12.67-19.033 12.67-30.59 0-11.555-4.5-22.418-12.67-30.589l-85.26-85.26c-16.868-16.868-44.311-16.866-61.178 0-14.965 14.967-16.65 38.265-5.054 55.11l-8.625 8.625c-39.058-5.23-78.327 7.938-106.43 36.04l-38.958 38.958-157.56-157.55c-5.88-5.88-15.415-5.88-21.296 0s-5.881 15.415 0 21.296l157.56 157.56-135.17 135.17c-11.838 11.838-18.359 27.579-18.359 44.321s6.519 32.483 18.359 44.322l78.127 78.126c11.839 11.839 27.58 18.359 44.322 18.359 16.743 0 32.483-6.519 44.322-18.359l135.17-135.17 157.56 157.56c2.939 2.942 6.794 4.412 10.648 4.412s7.708-1.471 10.648-4.411c5.882-5.879 5.882-15.414 0-21.295zm-335.32-22.389c-6.15 6.15-14.327 9.537-23.026 9.537-8.698 0-16.875-3.387-23.026-9.537l-78.126-78.127c-6.15-6.151-9.537-14.328-9.537-23.027s3.387-16.876 9.537-23.026l135.17-135.17 124.18 124.18-135.17 135.17zm156.46-156.46-124.18-124.18 38.958-38.958c18.344-18.343 42.925-28.339 68.304-28.339 6.329 0 12.708 0.621 19.051 1.89 4.934 0.984 10.04-0.558 13.601-4.119l24.24-24.24c5.881-5.88 5.881-15.415 0-21.296l-5.085-5.086c-5.124-5.124-5.124-13.462-1e-3 -18.587 2.483-2.483 5.783-3.849 9.293-3.849s6.81 1.366 9.292 3.849l85.26 85.26c2.483 2.483 3.849 5.783 3.849 9.292 0 3.511-1.366 6.811-3.849 9.292-5.124 5.125-13.463 5.124-18.587 1e-3l-5.086-5.086c-5.88-5.88-15.415-5.88-21.296 0l-24.24 24.24c-3.561 3.56-5.106 8.664-4.119 13.601 6.357 31.781-3.531 64.438-26.448 87.355l-38.957 38.96z"/>
</svg>
