<?xml version="1.0" encoding="UTF-8"?>
<svg version="1.1" viewBox="0 0 512 512" xmlns="http://www.w3.org/2000/svg">
<path d="m445.16 57.935c-1.01-1.01-3.513-3.051-7.225-3.051-0.746 0-1.54 0.082-2.381 0.272-21.435 4.83-37.73 12.347-47.122 21.739-14.505 14.505-21.594 42.422-24.592 62.361 19.933-2.997 47.854-10.087 62.36-24.593 9.392-9.392 16.909-25.687 21.739-47.122 1.134-5.029-1.565-8.392-2.779-9.606z"/>
<path d="m316.92 60.933c-2.755-4.356-7.042-4.827-8.757-4.827s-6.002 0.471-8.757 4.828c-11.742 18.573-17.948 35.409-17.948 48.692 0 20.512 14.727 45.266 26.706 61.485 11.976-16.214 26.705-40.971 26.705-61.485 0-13.282-6.208-30.12-17.949-48.693z"/>
<path d="m442.2 186.21c-18.573-11.741-35.409-17.948-48.692-17.948-20.513 0-45.266 14.727-61.485 26.706 16.214 11.977 40.971 26.706 61.485 26.706 13.282 0 30.12-6.207 48.693-17.949 4.356-2.754 4.827-7.042 4.827-8.756 0-1.715-0.47-6.002-4.828-8.759z"/>
<path d="m159.05 344.96c-0.16-0.147-0.299-0.309-0.452-0.463-0.14-0.14-0.289-0.268-0.424-0.414-0.515-0.557-4.22-4.612-9.316-11.138l-112.74 112.74c-5.881 5.88-5.881 15.415 0 21.296 2.94 2.94 6.795 4.411 10.648 4.411s7.708-1.471 10.648-4.411l112.74-112.74c-6.502-5.081-10.543-8.773-11.099-9.287z"/>
<path d="m247.58 130.27c-2.755-4.356-7.042-4.827-8.757-4.827s-6.002 0.471-8.757 4.828c-5.223 8.261-9.344 16.177-12.318 23.592l44.293 44.293c2.165-6.549 3.489-13.06 3.489-19.193-1e-3 -13.283-6.208-30.121-17.95-48.693z"/>
<path d="m151.68 215.57c-6.004 12.347-9.142 23.563-9.142 32.984 0 20.513 14.727 45.266 26.706 61.485 10.044-13.599 22.021-33.206 25.624-51.28l-43.188-43.189z"/>
<path d="m372.86 255.55c-18.573-11.742-35.41-17.949-48.693-17.949-6.132 0-12.643 1.323-19.193 3.489l44.294 44.293c7.415-2.974 15.331-7.095 23.592-12.318 4.357-2.755 4.827-7.043 4.827-8.758s-0.471-6.003-4.827-8.757z"/>
<path d="m507.59 486.29-481.88-481.88c-5.881-5.88-15.416-5.88-21.296 0-5.881 5.881-5.881 15.416 0 21.296l481.88 481.88c2.939 2.94 6.794 4.411 10.648 4.411s7.708-1.471 10.649-4.411c5.88-5.88 5.88-15.416-1e-3 -21.295z"/>
<path d="m244.38 308.27c-18.073 3.603-37.677 15.578-51.28 25.625 16.214 11.977 40.971 26.706 61.485 26.706 9.421 0 20.636-3.137 32.983-9.142l-43.188-43.189z"/>
</svg>
