<?xml version="1.0" encoding="UTF-8"?>
<svg version="1.1" viewBox="0 0 512 512" xmlns="http://www.w3.org/2000/svg">
<path d="m501.59 25.043c-1.9375-6.8555-8.4297-11.418-15.539-10.879-2.9805 0.22266-51.184 4.0625-95 24.332-40.504-25.207-87.012-38.496-135.06-38.496-68.379 0-132.66 26.629-181.01 74.977-48.348 48.352-74.977 112.63-74.977 181.01 0 68.375 26.629 132.66 74.977 181.01 48.352 48.348 112.63 74.977 181.01 74.977 68.375 0 132.66-26.629 181.01-74.977 48.348-48.352 74.977-112.64 74.977-181.01 0-28.113-4.5234-55.676-13.441-82.035 27.766-59.484 4.1641-144.98 3.0547-148.91zm-36.52 147.2c-20.082 28.684-57.785 32.875-82.426 32.156l59.227-84.453c4.7539-6.7852 3.1133-16.141-3.6719-20.895-6.7812-4.7578-16.137-3.1133-20.891 3.668l-59.184 84.395c-9.082-22.926-17.945-59.68 2.0898-88.293 8.5703-12.238 21.289-21.801 35.422-29.266 0.82812-0.33594 1.625-0.75391 2.3906-1.2383 27.742-14.039 60.273-20.262 77.699-22.754 6.793 31.988 13.18 92.641-10.656 126.68zm-103.88-116.32c-9.8047 7.2617-18.59 15.754-25.547 25.691-17.969 25.66-22.234 58.793-12.332 95.812 4.3438 16.25 10.512 29.852 14.805 38.219l-2.4609 3.5117c-20.867 29.758-36.316 62.621-45.91 97.676l-36.703 134.06-150.46-360.84c41.879-38.793 96.008-60.062 153.41-60.062 36.98 0 72.914 8.9102 105.2 25.93zm-331.19 200.06c0-52.277 17.641-101.84 50.094-141.91l152.92 366.74c-51.684-5.1836-99.602-27.816-136.82-65.039-42.688-42.684-66.191-99.434-66.191-159.8zm385.79 159.8c-37.961 37.961-87.051 60.738-139.91 65.32l42.805-156.34c8.6797-31.715 22.656-61.449 41.535-88.371l2.418-3.4453c6.1914 0.78516 14.887 1.5664 24.984 1.5664 5.0938 0 10.547-0.19922 16.211-0.69922 29.797-2.6211 54.414-12.543 72.328-28.977 3.8594 16.68 5.8203 33.793 5.8203 51.152 0 60.363-23.508 117.11-66.191 159.8z"/>
</svg>
