<svg height="512pt" viewBox="0 0 512.00017 512" width="512pt" xmlns="http://www.w3.org/2000/svg"><path d="m501.589844 25.042969c-1.9375-6.855469-8.429688-11.417969-15.539063-10.878907-2.980469.222657-51.183593 4.0625-95 24.332032-40.503906-25.207032-87.011719-38.496094-135.0625-38.496094-68.378906 0-132.660156 26.628906-181.011719 74.976562-48.347656 48.351563-74.976562 112.632813-74.976562 181.011719 0 68.375 26.628906 132.660157 74.976562 181.011719 48.351563 48.347656 112.632813 74.976562 181.011719 74.976562 68.375 0 132.660157-26.628906 181.011719-74.976562 48.347656-48.351562 74.976562-112.636719 74.976562-181.011719 0-28.113281-4.523437-55.675781-13.441406-82.035156 27.765625-59.484375 4.164063-144.980469 3.054688-148.910156zm-36.519532 147.203125c-20.082031 28.683594-57.785156 32.875-82.425781 32.15625l59.226563-84.453125c4.753906-6.785157 3.113281-16.140625-3.671875-20.894531-6.78125-4.757813-16.136719-3.113282-20.890625 3.667968l-59.183594 84.394532c-9.082031-22.925782-17.945312-59.679688 2.089844-88.292969 8.570312-12.238281 21.289062-21.800781 35.421875-29.265625.828125-.335938 1.625-.753906 2.390625-1.238282 27.742187-14.039062 60.273437-20.261718 77.699218-22.753906 6.792969 31.988282 13.179688 92.640625-10.65625 126.679688zm-103.878906-116.316406c-9.804687 7.261718-18.589844 15.753906-25.546875 25.691406-17.96875 25.660156-22.234375 58.792968-12.332031 95.8125 4.34375 16.25 10.511719 29.851562 14.804688 38.21875l-2.460938 3.511718c-20.867188 29.757813-36.316406 62.621094-45.910156 97.675782l-36.703125 134.0625-150.464844-360.839844c41.878906-38.792969 96.007813-60.0625 153.410156-60.0625 36.980469 0 72.914063 8.910156 105.203125 25.929688zm-331.191406 200.058593c0-52.277343 17.640625-101.839843 50.09375-141.90625l152.921875 366.742188c-51.683594-5.183594-99.601563-27.816407-136.824219-65.039063-42.6875-42.683594-66.191406-99.433594-66.191406-159.796875zm385.785156 159.796875c-37.960937 37.960938-87.050781 60.738282-139.910156 65.320313l42.804688-156.34375c8.679687-31.714844 22.65625-61.449219 41.535156-88.371094l2.417968-3.445313c6.191407.785157 14.886719 1.566407 24.984376 1.566407 5.09375 0 10.546874-.199219 16.210937-.699219 29.796875-2.621094 54.414063-12.542969 72.328125-28.976562 3.859375 16.679687 5.820312 33.792968 5.820312 51.152343 0 60.363281-23.507812 117.113281-66.191406 159.796875zm0 0"/></svg>