<?xml version="1.0" encoding="UTF-8"?>
<svg version="1.1" viewBox="0 0 512 512" xmlns="http://www.w3.org/2000/svg">
<path d="m485.5 12.039c-1.44-5.632-5.888-9.952-11.456-11.424-5.696-1.504-11.616 0.256-15.648 4.416-0.288 0.288-27.424 27.776-118.05 62.528-31.776 12.16-54.88 35.232-65.088 64.896-6.56 19.008-9.696 47.776 4.416 84.64 62.24-72.096 135.39-92.16 136.32-93.088-48.512 30.016-118.88 126.88-118.88 126.88-21.664 49.568-35.392 100.48-43.68 142.98-72.288-324.16-208.54-389.57-214.82-392.45-8.064-3.616-17.536-0.064-21.216 7.968-3.648 8.032-0.064 17.536 7.968 21.184 1.536 0.672 153.86 73.984 215.17 467.87 1.216 7.808 7.968 13.536 15.808 13.536 0.32 0 0.608 0 0.896-0.032 8.224-0.48 14.752-7.072 15.104-15.264 0.064-1.632 6.016-123.68 54.944-234.88 6.56 0.992 13.824 1.792 22.304 1.792 36.352 0 87.36-13.184 127.71-74.56 0.32-0.448 0.608-0.928 0.832-1.408 34.592-66.912 8.48-171.17 7.36-175.58z"/>
</svg>
