<?xml version="1.0" encoding="iso-8859-1"?>
<!-- Generator: Adobe Illustrator 19.0.0, SVG Export Plug-In . SVG Version: 6.00 Build 0)  -->
<svg version="1.1" id="Capa_1" xmlns="http://www.w3.org/2000/svg" xmlns:xlink="http://www.w3.org/1999/xlink" x="0px" y="0px"
	 viewBox="0 0 511.975 511.975" style="enable-background:new 0 0 511.975 511.975;" xml:space="preserve">
<g>
	<g>
		<path d="M485.5,12.039c-1.44-5.632-5.888-9.952-11.456-11.424c-5.696-1.504-11.616,0.256-15.648,4.416
			c-0.288,0.288-27.424,27.776-118.048,62.528c-31.776,12.16-54.88,35.232-65.088,64.896c-6.56,19.008-9.696,47.776,4.416,84.64
			c62.24-72.096,135.392-92.16,136.32-93.088c-48.512,30.016-118.88,126.88-118.88,126.88
			c-21.664,49.568-35.392,100.48-43.68,142.976C181.148,69.703,44.892,4.295,38.62,1.415c-8.064-3.616-17.536-0.064-21.216,7.968
			c-3.648,8.032-0.064,17.536,7.968,21.184c1.536,0.672,153.856,73.984,215.168,467.872c1.216,7.808,7.968,13.536,15.808,13.536
			c0.32,0,0.608,0,0.896-0.032c8.224-0.48,14.752-7.072,15.104-15.264c0.064-1.632,6.016-123.68,54.944-234.88
			c6.56,0.992,13.824,1.792,22.304,1.792c36.352,0,87.36-13.184,127.712-74.56c0.32-0.448,0.608-0.928,0.832-1.408
			C512.732,120.711,486.62,16.455,485.5,12.039z"/>
	</g>
</g>
<g>
</g>
<g>
</g>
<g>
</g>
<g>
</g>
<g>
</g>
<g>
</g>
<g>
</g>
<g>
</g>
<g>
</g>
<g>
</g>
<g>
</g>
<g>
</g>
<g>
</g>
<g>
</g>
<g>
</g>
</svg>
